<svg xmlns="http://www.w3.org/2000/svg" version="1.1" x="0" y="0" viewBox="0 0 1051 248" xml:space="preserve"><text transform="matrix(1 0 0 1 7.1079 13.5215)" opacity="0">x</text><path fill-rule="evenodd" clip-rule="evenodd" d="M1.4 246.5h20.6V25.1h27.7v221.3h20.6V4.5h-69V246.5zM86.6 246.5h20.7v-20.6H135v20.6h20.6V4.5h-69V246.5zM107.3 25.1H135v186.8h-27.7V25.1zM171.8 25.1H196v221.3h20.6V25.1h24.2V4.5h-69V25.1zM305.4 39h-27.7V4.5H257v242h20.6V52.9h27.7v193.6H326V4.5h-20.6V39zM342.2 246.5h20.6v-20.6h27.7v20.6h20.6V4.5h-69V246.5zM362.8 25.1h27.7v186.8h-27.7V25.1zM427.3 246.5H448V25.1h27.7v221.3h20.6V4.5h-69V246.5zM585.7 18.3L571.9 4.5h-20.6v242h20.6V39l13.9 13.9L599.6 39v207.5h20.6V4.5h-20.6L585.7 18.3zM636.4 150.5h69v-20.6h-48.4V40.1h48.4V19.5h-69V150.5zM721.6 246.5h69v-20.6h-48.4V25.1h48.4V4.5h-69V246.5zM827.4 4.5h-20.6v242h69v-20.6h-48.4V4.5zM940.3 225.2h-27.7V4.5h-20.6v242h69V4.5h-20.6V225.2zM977.1 4.5v242h20.6V25.1h27.7v221.3h20.6V4.5H977.1z"/><path fill-rule="evenodd" clip-rule="evenodd" fill="#ECECEC" d="M4.4 243.5h20.7V22.1h27.7v221.3h20.6V1.5h-69V243.5zM89.6 243.5h20.6v-20.6H138v20.6h20.6V1.5h-69V243.5zM110.3 22.1H138v186.8h-27.7V22.1zM174.8 22.1H199v221.3h20.7V22.1h24.2V1.5h-69V22.1zM308.4 36h-27.7V1.5H260v242h20.6V49.9h27.7v193.6H329V1.5h-20.7V36zM345.1 243.5h20.6v-20.6h27.7v20.6h20.6V1.5h-69V243.5zM365.8 22.1h27.7v186.8h-27.7V22.1zM430.3 243.5H451V22.1h27.7v221.3h20.6V1.5h-69V243.5zM588.7 15.3L574.9 1.5h-20.7v242h20.7V36l13.9 13.9L602.6 36v207.5h20.6V1.5h-20.6L588.7 15.3zM639.4 147.5h69v-20.6h-48.4V37.1h48.4V16.5h-69V147.5zM724.6 243.5h69v-20.6h-48.4V22.1h48.4V1.5h-69V243.5zM830.4 1.5h-20.6v242h69v-20.6h-48.4V1.5zM943.3 222.2h-27.7V1.5h-20.6v242h69V1.5h-20.6V222.2zM980.1 1.5v242h20.6V22.1h27.7v221.3h20.7V1.5H980.1z"/></svg>